<mxfile host="app.diagrams.net" modified="2023-06-15T07:27:02.575Z" agent="Mozilla/5.0 (Windows NT 10.0; Win64; x64) AppleWebKit/537.36 (KHTML, like Gecko) Chrome/112.0.0.0 YaBrowser/23.5.2.625 Yowser/2.5 Safari/537.36" etag="AZ4CBOFPiYABoCw1mYqD" version="21.4.0" type="github">
  <diagram name="Страница 1" id="3ZkxosFLAg7z24n7P6bn">
    <mxGraphModel dx="1631" dy="931" grid="1" gridSize="10" guides="1" tooltips="1" connect="1" arrows="1" fold="1" page="1" pageScale="1" pageWidth="827" pageHeight="1169" math="0" shadow="0">
      <root>
        <mxCell id="0" />
        <mxCell id="1" parent="0" />
        <mxCell id="E3Wodrh11Ji_lZznLCFY-1" value="" style="rounded=0;whiteSpace=wrap;html=1;" vertex="1" parent="1">
          <mxGeometry x="40" y="230" width="190" height="320" as="geometry" />
        </mxCell>
        <mxCell id="E3Wodrh11Ji_lZznLCFY-2" value="" style="ellipse;whiteSpace=wrap;html=1;fillColor=#3399FF;" vertex="1" parent="1">
          <mxGeometry x="74" y="510" width="30" height="30" as="geometry" />
        </mxCell>
        <mxCell id="E3Wodrh11Ji_lZznLCFY-3" value="" style="ellipse;whiteSpace=wrap;html=1;" vertex="1" parent="1">
          <mxGeometry x="160" y="510" width="30" height="30" as="geometry" />
        </mxCell>
        <mxCell id="E3Wodrh11Ji_lZznLCFY-4" value="" style="rounded=0;whiteSpace=wrap;html=1;" vertex="1" parent="1">
          <mxGeometry x="540" y="230" width="190" height="320" as="geometry" />
        </mxCell>
        <mxCell id="E3Wodrh11Ji_lZznLCFY-5" value="" style="ellipse;whiteSpace=wrap;html=1;fillColor=#3399FF;" vertex="1" parent="1">
          <mxGeometry x="670" y="510" width="30" height="30" as="geometry" />
        </mxCell>
        <mxCell id="E3Wodrh11Ji_lZznLCFY-6" value="" style="ellipse;whiteSpace=wrap;html=1;fillColor=#18141D;" vertex="1" parent="1">
          <mxGeometry x="580" y="510" width="30" height="30" as="geometry" />
        </mxCell>
        <mxCell id="E3Wodrh11Ji_lZznLCFY-8" value="" style="ellipse;shape=cloud;whiteSpace=wrap;html=1;fillColor=#6a00ff;fontColor=#ffffff;strokeColor=#3700CC;" vertex="1" parent="1">
          <mxGeometry x="74" y="340" width="120" height="80" as="geometry" />
        </mxCell>
        <mxCell id="E3Wodrh11Ji_lZznLCFY-9" value="List" style="swimlane;fontStyle=0;childLayout=stackLayout;horizontal=1;startSize=30;horizontalStack=0;resizeParent=1;resizeParentMax=0;resizeLast=0;collapsible=1;marginBottom=0;whiteSpace=wrap;html=1;" vertex="1" parent="1">
          <mxGeometry x="565" y="300" width="140" height="120" as="geometry" />
        </mxCell>
        <mxCell id="E3Wodrh11Ji_lZznLCFY-10" value="Item 1" style="text;strokeColor=none;fillColor=none;align=left;verticalAlign=middle;spacingLeft=4;spacingRight=4;overflow=hidden;points=[[0,0.5],[1,0.5]];portConstraint=eastwest;rotatable=0;whiteSpace=wrap;html=1;" vertex="1" parent="E3Wodrh11Ji_lZznLCFY-9">
          <mxGeometry y="30" width="140" height="30" as="geometry" />
        </mxCell>
        <mxCell id="E3Wodrh11Ji_lZznLCFY-11" value="Item 2" style="text;strokeColor=none;fillColor=none;align=left;verticalAlign=middle;spacingLeft=4;spacingRight=4;overflow=hidden;points=[[0,0.5],[1,0.5]];portConstraint=eastwest;rotatable=0;whiteSpace=wrap;html=1;" vertex="1" parent="E3Wodrh11Ji_lZznLCFY-9">
          <mxGeometry y="60" width="140" height="30" as="geometry" />
        </mxCell>
        <mxCell id="E3Wodrh11Ji_lZznLCFY-12" value="Item 3" style="text;strokeColor=none;fillColor=none;align=left;verticalAlign=middle;spacingLeft=4;spacingRight=4;overflow=hidden;points=[[0,0.5],[1,0.5]];portConstraint=eastwest;rotatable=0;whiteSpace=wrap;html=1;" vertex="1" parent="E3Wodrh11Ji_lZznLCFY-9">
          <mxGeometry y="90" width="140" height="30" as="geometry" />
        </mxCell>
      </root>
    </mxGraphModel>
  </diagram>
</mxfile>
